# xmcd CD database file
# Copyright (C) 1996 Ti Kan
#
# Track frame offsets:
# 	150
# 	28680
# 	47412
# 	60175
# 	88285
# 	105795
# 	118800
# 	149947
# 	162750
# 	174900
# 	204810
# 	225222
# 	244845
# 	267285
#
# Disc length: 3787 seconds
#
# Revision: 1
# Processed by: cddbd v1.4b41PL1 Copyright (c) Steve Scherf et al.
# Submitted via: DiscPlay 3.3.1
#
DISCID=ad0ec90e
DTITLE=Various Artist - The Blues Box CD 3
DYEAR=1900
DGENRE=
TTITLE0=Walking the Backstreets and Crying
TTITLE1=The Score
TTITLE2=Freight Loader
TTITLE3=Sadie
TTITLE4=Takin Off
TTITLE5=The Stumble
TTITLE6=Outside Help
TTITLE7=Shame Shame Shame
TTITLE8=The Sun is Shining
TTITLE9=City of Angles
TTITLE10=Madison Blues
TTITLE11=Texas Flood
TTITLE12=Thaw Out
TTITLE13=I'm Ready
EXTD=
EXTT0=
EXTT1=
EXTT2=
EXTT3=
EXTT4=
EXTT5=
EXTT6=
EXTT7=
EXTT8=
EXTT9=
EXTT10=
EXTT11=
EXTT12=
EXTT13=
PLAYORDER=
